<?xml version="1.0" standalone="no"?>
<!DOCTYPE svg PUBLIC "-//W3C//DTD SVG 20010904//EN"
 "http://www.w3.org/TR/2001/REC-SVG-20010904/DTD/svg10.dtd">
<svg version="1.0" xmlns="http://www.w3.org/2000/svg"
 width="305.000000pt" height="305.000000pt" viewBox="0 0 305.000000 305.000000"
 preserveAspectRatio="xMidYMid meet">

<g transform="translate(0.000000,305.000000) scale(0.100000,-0.100000)"
fill="#000000" stroke="none">
<path d="M669 2722 c-62 -55 -44 -182 28 -198 15 -3 34 -8 41 -10 11 -3 13
-59 10 -281 l-3 -278 -79 -170 c-43 -93 -187 -402 -319 -685 -220 -473 -240
-520 -245 -580 -3 -53 0 -76 18 -118 27 -63 95 -127 154 -144 31 -10 228 -13
836 -13 l795 0 45 24 c136 71 181 198 123 346 l-28 70 -43 3 c-23 2 -42 2 -42
0 0 -2 13 -35 30 -73 56 -133 31 -227 -75 -276 -38 -18 -83 -19 -815 -19 -731
0 -777 1 -815 19 -76 34 -123 118 -108 192 3 19 136 313 296 654 159 341 303
654 321 695 l31 75 3 317 3 317 -58 3 -58 3 0 35 0 35 387 3 c377 2 387 2 393
-18 3 -10 1 -28 -5 -40 -9 -16 -21 -20 -61 -20 l-50 0 3 -332 3 -333 71 -155
c39 -85 111 -242 159 -347 l88 -193 43 0 43 0 -24 53 c-13 28 -82 180 -154
337 -73 157 -138 308 -147 336 -11 40 -14 104 -12 304 l3 254 35 7 c53 11 80
49 80 114 0 43 -5 60 -24 82 l-24 28 -411 3 -410 3 -32 -29z"/>
<path d="M2360 1950 l0 -780 80 0 c45 0 80 4 80 10 0 5 14 17 31 25 61 32 119
-5 119 -75 0 -74 -79 -105 -138 -55 -27 22 -39 25 -117 25 l-87 0 -60 -55 -59
-55 -235 0 -234 0 -20 32 c-35 58 -34 58 125 58 l145 0 0 86 c0 77 3 89 25
116 32 38 32 81 0 113 -36 37 -86 34 -119 -6 -14 -17 -26 -37 -26 -45 0 -21
29 -74 40 -74 6 0 10 -27 10 -60 l0 -60 -128 0 -128 0 -18 37 c-10 21 -67 144
-126 273 -58 129 -126 277 -151 328 l-44 93 -35 -5 c-19 -3 -121 -6 -227 -6
-190 0 -192 0 -199 -22 -4 -13 -38 -88 -76 -168 -91 -190 -439 -931 -489
-1041 -21 -48 -39 -101 -39 -118 0 -42 22 -83 57 -107 27 -18 58 -19 783 -19
739 0 756 0 782 20 40 29 61 79 53 123 -4 19 -26 75 -51 124 -24 48 -44 92
-44 98 0 6 66 10 187 10 l186 0 63 -60 62 -60 84 0 c77 0 86 2 106 25 62 72
172 10 142 -81 -20 -59 -86 -73 -139 -29 -26 23 -38 26 -100 24 l-71 -2 0
-163 0 -164 265 0 265 0 0 1235 0 1235 -265 0 -265 0 0 -780z m-1157 -748 c53
-120 99 -226 103 -235 6 -16 -10 -17 -206 -17 -173 0 -211 2 -207 13 23 61
203 457 207 457 3 0 49 -98 103 -218z m1157 -324 l0 -152 -58 57 -58 57 -222
0 -222 0 -15 36 c-8 20 -15 38 -15 40 0 2 107 4 238 4 l239 0 49 54 c27 30 52
54 57 55 4 1 7 -67 7 -151z"/>
</g>
</svg>
